<?xml version="1.0" encoding="UTF-8" standalone="no"?>
<!-- Created with Inkscape (http://www.inkscape.org/) -->

<svg
   xmlns:osb="http://www.openswatchbook.org/uri/2009/osb"
   xmlns:dc="http://purl.org/dc/elements/1.1/"
   xmlns:cc="http://creativecommons.org/ns#"
   xmlns:rdf="http://www.w3.org/1999/02/22-rdf-syntax-ns#"
   xmlns:svg="http://www.w3.org/2000/svg"
   xmlns="http://www.w3.org/2000/svg"
   xmlns:sodipodi="http://sodipodi.sourceforge.net/DTD/sodipodi-0.dtd"
   xmlns:inkscape="http://www.inkscape.org/namespaces/inkscape"
   width="669.57483"
   height="720.08246"
   id="svg2"
   version="1.1"
   inkscape:version="0.48.1 r9760"
   sodipodi:docname="Novo documento 1">
  <defs
     id="defs4">
    <linearGradient
       id="linearGradient5331"
       osb:paint="solid">
      <stop
         style="stop-color:#ffffff;stop-opacity:1;"
         offset="0"
         id="stop5333" />
    </linearGradient>
  </defs>
  <sodipodi:namedview
     id="base"
     pagecolor="#ffffff"
     bordercolor="#666666"
     borderopacity="1.0"
     inkscape:pageopacity="0.0"
     inkscape:pageshadow="2"
     inkscape:zoom="0.98994949"
     inkscape:cx="339.16683"
     inkscape:cy="447.92248"
     inkscape:document-units="px"
     inkscape:current-layer="layer1"
     showgrid="false"
     fit-margin-top="20"
     fit-margin-left="20"
     fit-margin-right="20"
     fit-margin-bottom="20"
     inkscape:window-width="1366"
     inkscape:window-height="693"
     inkscape:window-x="0"
     inkscape:window-y="25"
     inkscape:window-maximized="1" />
  <metadata
     id="metadata7">
    <rdf:RDF>
      <cc:Work
         rdf:about="">
        <dc:format>image/svg+xml</dc:format>
        <dc:type
           rdf:resource="http://purl.org/dc/dcmitype/StillImage" />
        <dc:title></dc:title>
      </cc:Work>
    </rdf:RDF>
  </metadata>
  <g
     inkscape:label="Camada 1"
     inkscape:groupmode="layer"
     id="layer1"
     transform="translate(-62.707632,151.66148)">
    <path
       sodipodi:type="arc"
       style="fill:#ffffff;fill-opacity:1;stroke:#000000;stroke-width:3;stroke-linecap:butt;stroke-miterlimit:4;stroke-opacity:1;stroke-dasharray:none"
       id="path2989"
       sodipodi:cx="350.52292"
       sodipodi:cy="208.88481"
       sodipodi:rx="180.81731"
       sodipodi:ry="180.81731"
       d="m 531.34023,208.88481 c 0,99.86264 -80.95467,180.81731 -180.81731,180.81731 -99.86264,0 -180.81731,-80.95467 -180.81731,-180.81731 0,-99.86264 80.95467,-180.817305 180.81731,-180.817305 99.86264,0 180.81731,80.954665 180.81731,180.817305 z" />
    <rect
       style="fill:#ffffff;fill-opacity:1;stroke:#000000;stroke-width:0.43076581;stroke-linecap:butt;stroke-miterlimit:4;stroke-opacity:1;stroke-dasharray:none"
       id="rect3011"
       width="22.772285"
       height="22.772285"
       x="252.26367"
       y="37.894562" />
    <rect
       style="fill:#ffffff;fill-opacity:1;stroke:#000000;stroke-width:0.43076581;stroke-linecap:butt;stroke-miterlimit:4;stroke-opacity:1;stroke-dasharray:none"
       id="rect3011-6"
       width="22.772285"
       height="22.772285"
       x="254.28398"
       y="356.09262" />
    <path
       sodipodi:type="arc"
       style="fill:none;stroke:#0000ff;stroke-width:1.26309634;stroke-linecap:butt;stroke-miterlimit:2;stroke-opacity:1;stroke-dasharray:10.10477068,1.26309634;stroke-dashoffset:0.12630963"
       id="path3038"
       sodipodi:cx="644.98242"
       sodipodi:cy="92.212189"
       sodipodi:rx="113.64216"
       sodipodi:ry="113.64216"
       d="m 758.62458,92.212189 c 0,62.762831 -50.87933,113.642161 -113.64216,113.642161 -62.76283,0 -113.64216,-50.87933 -113.64216,-113.642161 0,-62.762831 50.87933,-113.642159 113.64216,-113.642159 62.76283,0 113.64216,50.879328 113.64216,113.642159 z"
       transform="matrix(1.5834105,0,0,1.5834105,-489.93169,58.834448)" />
    <rect
       style="fill:#ffffff;fill-opacity:1;stroke:#000000;stroke-width:0.43076581;stroke-linecap:butt;stroke-miterlimit:4;stroke-opacity:1;stroke-dasharray:none"
       id="rect3011-0"
       width="22.772285"
       height="22.772285"
       x="519.9541"
       y="193.45805"
       inkscape:transform-center-x="-11.601526" />
    <path
       sodipodi:type="arc"
       style="fill:none;stroke:#0000ff;stroke-width:1.26309634;stroke-linecap:butt;stroke-miterlimit:2;stroke-opacity:1;stroke-dasharray:10.10477068,1.26309634;stroke-dashoffset:0.12630963"
       id="path3038-5"
       sodipodi:cx="644.98242"
       sodipodi:cy="92.212189"
       sodipodi:rx="113.64216"
       sodipodi:ry="113.64216"
       d="m 758.62458,92.212189 c 0,62.762831 -50.87933,113.642161 -113.64216,113.642161 -62.76283,0 -113.64216,-50.87933 -113.64216,-113.642161 0,-62.762831 50.87933,-113.642159 113.64216,-113.642159 62.76283,0 113.64216,50.879328 113.64216,113.642159 z"
       transform="matrix(1.5834105,0,0,1.5834105,-757.62212,-96.729043)" />
    <path
       sodipodi:type="arc"
       style="fill:none;stroke:#0000ff;stroke-width:1.26309634;stroke-linecap:butt;stroke-miterlimit:2;stroke-opacity:1;stroke-dasharray:10.10477068,1.26309634;stroke-dashoffset:0.12630963"
       id="path3038-5-4"
       sodipodi:cx="644.98242"
       sodipodi:cy="92.212189"
       sodipodi:rx="113.64216"
       sodipodi:ry="113.64216"
       d="m 758.62458,92.212189 c 0,62.762831 -50.87933,113.642161 -113.64216,113.642161 -62.76283,0 -113.64216,-50.87933 -113.64216,-113.642161 0,-62.762831 50.87933,-113.642159 113.64216,-113.642159 62.76283,0 113.64216,50.879328 113.64216,113.642159 z"
       transform="matrix(1.5834105,0,0,1.5834105,-755.60182,221.46902)" />
    <path
       sodipodi:type="arc"
       style="fill:#ff0000;fill-opacity:1;stroke:#ff0000;stroke-width:2;stroke-linecap:butt;stroke-miterlimit:2;stroke-opacity:1;stroke-dasharray:16, 2;stroke-dashoffset:0"
       id="path5373"
       sodipodi:cx="344.46201"
       sodipodi:cy="193.73251"
       sodipodi:rx="4.0406103"
       sodipodi:ry="4.0406103"
       d="m 348.50262,193.73251 c 0,2.23157 -1.80905,4.04061 -4.04061,4.04061 -2.23157,0 -4.04061,-1.80904 -4.04061,-4.04061 0,-2.23156 1.80904,-4.04061 4.04061,-4.04061 2.23156,0 4.04061,1.80905 4.04061,4.04061 z"
       transform="translate(6,14)" />
  </g>
</svg>
